<svg width="125" height="24" viewBox="0 0 125 24" fill="none" xmlns="http://www.w3.org/2000/svg">
<path d="M10.7428 0C11.8069 0 12.79 0.0815146 13.692 0.326058C14.5939 0.489088 15.3338 0.825336 15.9925 1.23291C16.6513 1.64048 17.1378 2.22127 17.4722 2.96509C17.7965 3.70892 17.9688 4.61577 17.9688 5.60413C17.9688 6.75552 17.7256 7.74389 17.1479 8.48771C16.6513 9.23153 15.8405 9.89384 14.8473 10.3829C16.2459 10.7905 17.31 11.5343 17.9587 12.5227C18.6073 13.511 19.0228 14.744 19.0228 16.1501C19.0228 17.3015 18.7796 18.2898 18.364 19.1152C17.9587 19.9405 17.2999 20.6843 16.5601 21.1734C15.8202 21.6727 14.9183 22.0803 13.9352 22.3248C12.9521 22.5694 11.9691 22.7324 10.986 22.7324L0 22.7528V0H10.7428ZM10.084 9.23153C10.986 9.23153 11.7258 8.98699 12.2934 8.56922C12.8609 8.15146 13.1143 7.41783 13.1143 6.51098C13.1143 6.0117 13.0332 5.52262 12.871 5.19656C12.7089 4.8705 12.4657 4.61577 12.1312 4.37122C11.8069 4.20819 11.4725 4.04516 11.0671 3.96365C10.6617 3.88213 10.2462 3.88213 9.7597 3.88213H5.00653V9.24172C5.00653 9.23153 10.084 9.23153 10.084 9.23153ZM10.3272 18.9623C10.8238 18.9623 11.3103 18.8808 11.7258 18.7993C12.1312 18.7178 12.5467 18.5548 12.871 18.3C13.1954 18.0453 13.4487 17.8008 13.692 17.3932C13.8541 16.9856 14.0163 16.4863 14.0163 15.9055C14.0163 14.7541 13.692 13.9288 13.0332 13.348C12.3745 12.8487 11.4725 12.6042 10.4083 12.6042H5.00653V18.9521H10.3272V18.9623Z" fill="#2D2D2D"/>
<path d="M26.1576 18.8808C26.8164 19.5431 27.7994 19.8692 29.1068 19.8692C30.0088 19.8692 30.8297 19.6246 31.4885 19.2069C32.1472 18.7076 32.5526 18.2185 32.7148 17.7192H36.7281C36.0694 19.696 35.0863 21.1021 33.7789 22.0089C32.4715 22.8343 30.9108 23.3234 29.0257 23.3234C27.7184 23.3234 26.563 23.0788 25.4989 22.6611C24.4347 22.2535 23.6138 21.6727 22.874 20.8474C22.1342 20.1035 21.5666 19.1967 21.2322 18.1268C20.8268 17.0569 20.6545 15.9055 20.6545 14.5809C20.6545 13.348 20.8166 12.1864 21.2322 11.1166C21.6477 10.0467 22.2152 9.13982 22.9551 8.31449C23.6949 7.57067 24.5969 6.90836 25.58 6.50079C26.6441 6.09321 27.7082 5.83848 29.0257 5.83848C30.4243 5.83848 31.6506 6.08302 32.7148 6.66382C33.7789 7.24461 34.5998 7.89672 35.2586 8.88509C35.9173 9.79194 36.4038 10.8618 36.7382 12.0132C36.9004 13.1646 36.9815 14.3262 36.9004 15.6406H25.0124C25.0124 16.9856 25.4989 18.2185 26.1576 18.8808ZM31.3263 10.2199C30.7486 9.6391 29.8467 9.31304 28.7825 9.31304C28.0427 9.31304 27.4751 9.47607 26.9785 9.72061C26.4819 9.96516 26.1576 10.3014 25.8333 10.6275C25.509 10.9535 25.3367 11.3713 25.2556 11.7789C25.1746 12.1864 25.0935 12.5227 25.0935 12.8487H32.4715C32.3094 11.626 31.8939 10.8007 31.3263 10.2199ZM24.1104 1.56915H33.2924V3.79043H24.1104V1.56915Z" fill="#2D2D2D"/>
<path d="M43.2954 0V8.56922H43.3764C43.9541 7.58086 44.6838 6.91855 45.5858 6.51098C46.4878 6.10341 47.3087 5.84867 48.2107 5.84867C49.437 5.84867 50.42 6.0117 51.1599 6.34795C51.8997 6.67401 52.5585 7.17329 52.9639 7.75408C53.3692 8.33487 53.7037 9.0685 53.8658 9.89384C54.028 10.7192 54.1091 11.626 54.1091 12.6959V22.8343H49.5991V13.5212C49.5991 12.1151 49.3559 11.1267 48.9404 10.4746C48.5249 9.82251 47.8053 9.47607 46.7412 9.47607C45.5149 9.47607 44.6129 9.88365 44.1163 10.546C43.5386 11.2898 43.2954 12.5227 43.2954 14.1734V22.8343H38.7854V0H43.2954Z" fill="#2D2D2D"/>
<path d="M57.4028 8.74241C57.8994 7.99858 58.467 7.5095 59.2068 7.01022C59.9467 6.60265 60.7676 6.2664 61.6696 6.10337C62.5715 5.94034 63.4735 5.85883 64.3755 5.85883C65.1964 5.85883 66.0173 5.94034 66.9193 6.02185C67.7402 6.10337 68.5611 6.34791 69.2199 6.68416C69.9597 7.01022 70.4462 7.5095 70.9428 8.09029C71.3482 8.67108 71.6015 9.49642 71.6015 10.4848V19.1457C71.6015 19.8895 71.6826 20.6333 71.7637 21.2855C71.8448 21.9478 72.088 22.5184 72.3414 22.8546H67.7504C67.5882 22.6916 67.5071 22.3553 67.4261 22.1108C67.345 21.8663 67.345 21.53 67.345 21.2855C66.6051 22.0293 65.7842 22.5184 64.8012 22.8546C63.8181 23.1807 62.835 23.2622 61.852 23.2622C61.0311 23.2622 60.3723 23.1807 59.6426 22.9361C58.9839 22.7731 58.4163 22.4369 57.8386 22.0293C57.342 21.6217 56.9366 21.1224 56.6123 20.4601C56.3691 19.7978 56.207 19.1457 56.207 18.2389C56.207 17.332 56.3691 16.5067 56.7036 15.9259C57.0279 15.3451 57.4434 14.856 57.9298 14.4382C58.4264 14.1122 59.0751 13.7759 59.7338 13.6129C60.3926 13.4499 61.0412 13.2868 61.781 13.2053C62.4398 13.1238 63.0884 13.0423 63.7472 12.9608C64.4059 12.8793 64.9735 12.7978 65.4701 12.7162C65.9667 12.5532 66.372 12.3902 66.6964 12.1355C67.0207 11.8909 67.1017 11.5547 67.1017 11.0656C67.1017 10.5663 67.0207 10.1587 66.8585 9.91418C66.6964 9.66963 66.4531 9.4149 66.1998 9.25187C65.9565 9.08884 65.6221 9.00733 65.2978 8.92581C64.9735 8.8443 64.5579 8.8443 64.1525 8.8443C63.2506 8.8443 62.5918 9.00733 62.1053 9.42509C61.6087 9.83266 61.2844 10.495 61.2034 11.3203H56.6934C56.663 10.3014 56.9873 9.39452 57.4028 8.74241ZM66.3416 15.1719C66.0984 15.2534 65.764 15.3349 65.4397 15.4164C65.1153 15.4979 64.7809 15.4979 64.3755 15.5794C64.0512 15.661 63.6357 15.661 63.3114 15.7425C62.9871 15.824 62.6526 15.9055 62.3283 15.987C62.004 16.0685 61.6696 16.2316 61.5074 16.3946C61.2642 16.5576 61.102 16.8022 60.9297 17.0569C60.6865 17.383 60.6865 17.7192 60.6865 18.1268C60.6865 18.5343 60.7676 18.8706 60.9297 19.1151C61.0919 19.3597 61.254 19.6144 61.5074 19.7774C61.7506 19.9405 62.0851 20.022 62.4094 20.1035C62.7337 20.185 63.0681 20.185 63.4735 20.185C64.3755 20.185 65.0343 20.022 65.5207 19.7774C66.0173 19.4514 66.3416 19.1151 66.5849 18.7076C66.8281 18.3 66.9903 17.8822 66.9903 17.4747C67.0713 17.0671 67.0713 16.7308 67.0713 16.4863V14.7541C66.8281 14.9171 66.5849 15.0904 66.3416 15.1719Z" fill="#2D2D2D"/>
<path d="M78.3918 6.2664V8.57938H78.4728C79.0505 7.59101 79.7802 6.9287 80.6822 6.52113C81.5842 6.11356 82.5672 5.85883 83.4692 5.85883C84.6955 5.85883 85.6786 6.02186 86.4184 6.3581C87.2393 6.68416 87.817 7.18344 88.2224 7.76423C88.6278 8.34502 88.9622 9.07865 89.2055 9.90399C89.3676 10.7293 89.4487 11.6362 89.4487 12.7061V22.8444H84.9388V13.5314C84.9388 12.1253 84.6955 11.1369 84.28 10.4848C83.8746 9.82247 83.1348 9.4149 81.9794 9.4149C80.7531 9.4149 79.8512 9.91418 79.2735 10.6478C78.6958 11.3916 78.4526 12.6245 78.4526 14.2752V22.9361H73.9426V6.2664C73.9629 6.2664 78.3918 6.2664 78.3918 6.2664Z" fill="#2D2D2D"/>
<path d="M99.553 9.23149C98.8132 9.23149 98.2456 9.39452 97.749 9.73077C97.2524 10.0568 96.847 10.4746 96.5227 11.0452C96.1984 11.5445 96.0261 12.1151 95.864 12.7774C95.7018 13.4397 95.7018 14.0103 95.7018 14.6726C95.7018 15.2534 95.7829 15.9055 95.864 16.4863C96.0261 17.1486 96.1883 17.6377 96.5227 18.137C96.847 18.6362 97.1815 19.0438 97.6679 19.3699C98.1645 19.6959 98.7321 19.8691 99.4719 19.8691C100.536 19.8691 101.357 19.5431 102.016 18.9623C102.593 18.3815 102.999 17.5562 103.08 16.4863H107.428C107.103 18.7076 106.282 20.3582 104.884 21.5198C103.485 22.6712 101.681 23.252 99.4719 23.252C98.2456 23.252 97.0903 23.0075 96.1072 22.5897C95.0431 22.1821 94.2222 21.6013 93.4823 20.8575C92.7425 20.1137 92.1749 19.2068 91.7594 18.2185C91.354 17.1486 91.1817 16.0787 91.1817 14.8356C91.1817 13.5212 91.3439 12.3596 91.7594 11.2897C92.1648 10.2199 92.6614 9.23149 93.4012 8.40615C94.1411 7.58082 95.0431 7.00003 96.0261 6.51094C97.0903 6.10337 98.2355 5.84863 99.553 5.84863C100.536 5.84863 101.438 6.01166 102.34 6.25621C103.242 6.50075 104.063 6.91851 104.722 7.4076C105.462 7.90688 106.029 8.55899 106.445 9.38433C106.85 10.1281 107.103 11.1165 107.184 12.1864H102.756C102.583 10.2199 101.519 9.23149 99.553 9.23149Z" fill="#2D2D2D"/>
<path d="M114.228 18.8809C114.887 19.5432 115.951 19.8693 117.177 19.8693C118.079 19.8693 118.9 19.6247 119.559 19.207C120.218 18.7077 120.623 18.2186 120.785 17.7193H124.717C124.059 19.696 123.076 21.1022 121.768 22.009C120.461 22.8344 118.9 23.3234 117.015 23.3234C115.708 23.3234 114.552 23.0789 113.488 22.6611C112.424 22.2536 111.603 21.6728 110.863 20.8474C110.123 20.1036 109.556 19.1968 109.221 18.1269C108.816 17.057 108.644 15.9056 108.644 14.581C108.644 13.3481 108.806 12.1865 109.221 11.1166C109.627 10.0468 110.205 9.1399 110.944 8.31457C111.684 7.57075 112.586 6.90844 113.569 6.50087C114.633 6.0933 115.779 5.83856 117.015 5.83856C118.414 5.83856 119.64 6.08311 120.623 6.6639C121.687 7.24469 122.508 7.89681 123.167 8.88517C123.826 9.79202 124.312 10.8619 124.646 12.0133C124.971 13.1647 125.052 14.4078 124.971 15.7222H113.083C113.083 16.9857 113.569 18.2186 114.228 18.8809ZM119.478 10.22C118.9 9.63918 117.998 9.31312 116.934 9.31312C116.194 9.31312 115.627 9.47615 115.13 9.72069C114.633 9.96524 114.228 10.3015 113.985 10.6275C113.742 10.9536 113.488 11.3714 113.407 11.7789C113.326 12.1865 113.245 12.5228 113.245 12.8488H120.623C120.38 11.6261 119.964 10.8008 119.478 10.22Z" fill="#2D2D2D"/>
</svg>
