<svg width="125" height="34" viewBox="0 0 125 34" fill="none" xmlns="http://www.w3.org/2000/svg">
<path d="M24.0957 14.4806H13.5829C13.3117 14.4806 13.0916 14.701 13.0916 14.9721V20.1121C13.0916 20.3833 13.3117 20.604 13.5829 20.604H17.684V26.9899C17.684 26.9899 16.7631 27.3038 14.2172 27.3038C11.2136 27.3038 7.01769 26.2063 7.01769 16.9798C7.01769 7.75127 11.3868 6.53706 15.4887 6.53706C19.0394 6.53706 20.5691 7.16227 21.5423 7.46341C21.8481 7.55719 22.131 7.25266 22.131 6.98122L23.3038 2.01499C23.3038 1.88813 23.2608 1.73521 23.116 1.63127C22.7208 1.34941 20.3093 0 14.2172 0C7.199 0 0 2.98589 0 17.3396C0 31.6938 8.24231 33.8328 15.1878 33.8328C20.9387 33.8328 24.4274 31.3752 24.4274 31.3752C24.5712 31.2958 24.5868 31.0949 24.5868 31.0027V14.9721C24.5868 14.701 24.3669 14.4806 24.0957 14.4806ZM78.246 1.79669C78.246 1.52316 78.0292 1.30251 77.7581 1.30251H71.8386C71.5682 1.30251 71.3484 1.52316 71.3484 1.79669C71.3484 1.79799 71.3499 13.2362 71.3499 13.2362H62.1232V1.79669C62.1232 1.52316 61.9054 1.30251 61.6347 1.30251H55.7156C55.4462 1.30251 55.2266 1.52316 55.2266 1.79669V32.7713C55.2266 33.0445 55.4462 33.267 55.7156 33.267H61.6347C61.9054 33.267 62.1232 33.0445 62.1232 32.7713V19.5224H71.3499C71.3499 19.5224 71.3338 32.7702 71.3338 32.7713C71.3338 33.0445 71.5534 33.267 71.8241 33.267H77.7575C78.0287 33.267 78.2454 33.0445 78.246 32.7713V1.79669ZM35.2468 5.9379C35.2468 3.80647 33.5379 2.08402 31.4297 2.08402C29.3235 2.08402 27.6133 3.80647 27.6133 5.9379C27.6133 8.067 29.3235 9.79413 31.4297 9.79413C33.5379 9.79413 35.2468 8.067 35.2468 5.9379ZM34.7771 26.2535V11.9555C34.7771 11.6841 34.5581 11.4621 34.2874 11.4621H28.3867C28.1161 11.4621 27.8738 11.7414 27.8738 12.0128V32.4975C27.8738 33.0995 28.2489 33.2785 28.7345 33.2785H34.0509C34.6341 33.2785 34.7771 32.9922 34.7771 32.4878V26.2535ZM100.87 11.4621H94.9955C94.7262 11.4621 94.5068 11.6841 94.5068 11.9573V27.1452C94.5068 27.1452 93.0147 28.237 90.8965 28.237C88.7786 28.237 88.2165 27.276 88.2165 25.2021V11.9573C88.2165 11.6841 87.9976 11.4621 87.728 11.4621H81.7664C81.4973 11.4621 81.2769 11.6841 81.2769 11.9573V26.205C81.2769 32.3649 84.7101 33.8719 89.433 33.8719C93.3075 33.8719 96.4314 31.7313 96.4314 31.7313C96.4314 31.7313 96.5802 32.8593 96.6474 32.9932C96.7149 33.1266 96.8902 33.2613 97.0796 33.2613L100.872 33.2446C101.141 33.2446 101.362 33.0221 101.362 32.7502L101.36 11.9573C101.36 11.6841 101.14 11.4621 100.87 11.4621ZM114.404 28.2487C112.366 28.1867 110.984 27.2622 110.984 27.2622V17.4532C110.984 17.4532 112.348 16.6175 114.02 16.468C116.136 16.2786 118.174 16.9176 118.174 21.9635C118.174 27.2846 117.254 28.3346 114.404 28.2487ZM116.72 10.7968C113.384 10.7968 111.115 12.2853 111.115 12.2853V1.79669C111.115 1.52316 110.896 1.30251 110.626 1.30251H104.69C104.421 1.30251 104.201 1.52316 104.201 1.79669V32.7713C104.201 33.0445 104.421 33.267 104.691 33.267H108.81C108.995 33.267 109.136 33.1714 109.239 33.0039C109.342 32.8374 109.489 31.5758 109.489 31.5758C109.489 31.5758 111.917 33.8761 116.512 33.8761C121.906 33.8761 125 31.1397 125 21.5921C125 12.0444 120.059 10.7968 116.72 10.7968ZM51.8138 11.409H47.3735C47.3735 11.409 47.3667 5.54428 47.3667 5.54298C47.3667 5.32103 47.2524 5.21006 46.9958 5.21006H40.9448C40.7096 5.21006 40.5832 5.31348 40.5832 5.5396V11.6015C40.5832 11.6015 37.551 12.3335 37.346 12.3926C37.1417 12.4518 36.9914 12.6401 36.9914 12.8647V16.674C36.9914 16.9481 37.2102 17.169 37.4809 17.169H40.5832V26.3329C40.5832 33.1396 45.3577 33.8083 48.5796 33.8083C50.0517 33.8083 51.8127 33.3355 52.1035 33.2282C52.2793 33.1636 52.3814 32.9815 52.3814 32.784L52.3864 28.5936C52.3864 28.3203 52.1556 28.0992 51.8956 28.0992C51.6369 28.0992 50.975 28.2044 50.2935 28.2044C48.1126 28.2044 47.3735 27.1903 47.3735 25.8776C47.3735 24.566 47.3732 17.169 47.3732 17.169H51.8138C52.0844 17.169 52.3035 16.9481 52.3035 16.674V11.9026C52.3035 11.6294 52.0844 11.409 51.8138 11.409Z" fill="#2D2D2D"/>
</svg>
