<svg width="125" height="36" viewBox="0 0 125 36" fill="none" xmlns="http://www.w3.org/2000/svg">
<path d="M6.4336 0.123347C3.87508 1.19515 1.0624 4.21929 0.17407 8.01793C-0.950962 12.8297 3.73075 14.8647 4.11473 14.1983C4.56668 13.4144 3.27585 13.1493 3.01011 10.6526C2.66673 7.42795 4.16586 3.82478 6.05277 2.2438C6.4033 1.95008 6.38668 2.35889 6.38668 3.11509C6.38668 4.46735 6.31199 16.6066 6.31199 19.1401C6.31199 22.5682 6.17038 23.6508 5.916 24.7205C5.65847 25.8045 5.24418 26.5369 5.5579 26.819C5.90864 27.1346 7.40609 26.3839 8.27295 25.1741C9.31235 23.7231 9.67614 21.9806 9.74158 20.0882C9.82048 17.807 9.81711 14.1872 9.82048 12.1225C9.82342 10.2289 9.85225 4.68386 9.78723 1.35042C9.77124 0.532793 7.50372 -0.325025 6.4336 0.123347Z" fill="#2D2D2D"/>
<path d="M97.2863 16.1667C97.2039 17.9488 96.8093 19.3419 96.3197 20.3245C95.3719 22.2267 93.405 22.8173 92.5699 20.0829C92.1148 18.5924 92.0936 16.1029 92.4207 14.0229C92.7538 11.9039 93.6838 10.3035 95.2237 10.4479C96.7426 10.5905 97.4536 12.5477 97.2863 16.1667ZM71.6797 27.2238C71.6591 30.1851 71.193 32.7815 70.1936 33.5355C68.7761 34.6048 66.8709 33.8028 67.2654 31.6419C67.6145 29.7298 69.2653 27.777 71.6837 25.391C71.6837 25.391 71.6888 25.9351 71.6797 27.2238ZM71.2926 16.1492C71.2059 17.7725 70.7851 19.4031 70.326 20.3245C69.3783 22.2267 67.3971 22.8213 66.5761 20.0829C66.0148 18.2118 66.1492 15.7903 66.427 14.2644C66.7874 12.2847 67.661 10.4481 69.23 10.4481C70.7554 10.4481 71.5076 12.1216 71.2926 16.1492ZM56.4588 16.1246C56.3658 17.8436 56.0305 19.2807 55.4923 20.3245C54.5185 22.2137 52.592 22.8127 51.7424 20.0829C51.1299 18.1144 51.3384 15.4305 51.5932 13.9806C51.9713 11.829 52.9182 10.3035 54.3963 10.4481C55.9145 10.5964 56.6526 12.5477 56.4588 16.1246ZM124.438 18.1325C124.067 18.1325 123.898 18.5152 123.758 19.159C123.271 21.3984 122.761 21.9038 122.102 21.9038C121.366 21.9038 120.705 20.7951 120.535 18.5756C120.401 16.8303 120.422 13.6174 120.593 10.4214C120.628 9.7647 120.447 9.11497 118.686 8.47513C117.928 8.19992 116.826 7.79468 116.278 9.11876C114.728 12.8595 114.121 15.8294 113.979 17.0356C113.971 17.0981 113.895 17.111 113.881 16.9649C113.79 15.9988 113.587 14.2427 113.562 10.5537C113.557 9.83392 113.405 9.22122 112.61 8.71962C112.095 8.39412 110.529 7.81846 109.966 8.50332C109.477 9.06342 108.912 10.5708 108.324 12.3575C107.846 13.8097 107.514 14.7921 107.514 14.7921C107.514 14.7921 107.52 10.8737 107.526 9.38744C107.528 8.82671 107.144 8.63988 107.028 8.606C106.506 8.45472 105.477 8.2016 105.041 8.2016C104.502 8.2016 104.37 8.50248 104.37 8.94117C104.37 8.99883 104.285 14.1001 104.285 17.6673C104.285 17.8223 104.285 17.9913 104.286 18.171C103.988 19.8104 103.022 22.0361 101.971 22.0361C100.919 22.0361 100.423 21.1057 100.423 16.853C100.423 14.3723 100.497 13.2934 100.534 11.4991C100.555 10.4656 100.596 9.67191 100.594 9.4918C100.586 8.93949 99.6309 8.66113 99.1865 8.55824C98.74 8.45472 98.352 8.41432 98.049 8.43157C97.6202 8.45598 97.3168 8.73708 97.3168 9.12402C97.3168 9.33168 97.3192 9.72598 97.3192 9.72598C96.7668 8.85806 95.8785 8.25399 95.2875 8.07894C93.6956 7.60616 92.0344 8.02528 90.7815 9.77837C89.7856 11.1715 89.1853 12.7493 88.9491 15.0162C88.7763 16.6735 88.8327 18.354 89.1397 19.7753C88.7687 21.379 88.0801 22.0361 87.326 22.0361C86.2313 22.0361 85.4376 20.2494 85.5298 17.1589C85.5906 15.1264 85.9973 13.6999 86.4419 11.6362C86.6315 10.7565 86.4774 10.296 86.0911 9.85454C85.7368 9.44972 84.9819 9.24289 83.8966 9.49727C83.1236 9.67864 82.0183 9.87369 81.0071 10.0235C81.0071 10.0235 81.0682 9.78006 81.1182 9.35083C81.3812 7.09993 78.9353 7.28256 78.1549 8.00151C77.6891 8.43073 77.372 8.93697 77.2516 9.84718C77.0608 11.2916 78.2388 11.9729 78.2388 11.9729C77.8523 13.7424 76.9049 16.0535 75.9267 17.7245C75.4028 18.6198 75.002 19.2832 74.4846 19.9885C74.4827 19.7259 74.4812 19.4631 74.4804 19.2018C74.4686 15.482 74.5181 12.5547 74.5399 11.4993C74.5612 10.4658 74.6026 9.69316 74.6003 9.51305C74.5944 9.10929 74.3586 8.95653 73.8679 8.76338C73.4341 8.59253 72.9211 8.47429 72.389 8.43305C71.7174 8.38087 71.3128 8.73687 71.3233 9.1581C71.3254 9.23763 71.3254 9.72598 71.3254 9.72598C70.7731 8.85806 69.8847 8.25399 69.2937 8.07894C67.7018 7.60637 66.0407 8.02528 64.7877 9.77837C63.7921 11.1715 63.14 13.1263 62.9553 14.9989C62.7832 16.7442 62.815 18.2272 63.0496 19.4767C62.7964 20.7278 62.0686 22.0361 61.2458 22.0361C60.1937 22.0361 59.5951 21.1057 59.5951 16.853C59.5951 14.3723 59.6696 13.2934 59.7062 11.4993C59.7275 10.4658 59.7685 9.67191 59.7662 9.49201C59.7584 8.9397 58.8034 8.66134 58.359 8.55824C57.894 8.45072 57.4926 8.41117 57.1843 8.4341C56.7776 8.46419 56.4917 8.8284 56.4917 9.10003V9.72598C55.9394 8.85806 55.051 8.25399 54.46 8.07894C52.8681 7.60637 51.2162 8.03202 49.954 9.77837C49.1309 10.9171 48.4645 12.1795 48.1216 14.9741C48.0225 15.7816 47.9787 16.538 47.9844 17.2448C47.6562 19.2522 46.2065 21.5656 45.0206 21.5656C44.3267 21.5656 43.6658 20.2197 43.6658 17.3512C43.6658 13.5303 43.9023 8.0903 43.9423 7.56597C43.9423 7.56597 45.4406 7.54051 45.7308 7.53715C46.4781 7.52894 47.155 7.54661 48.1504 7.4957C48.6497 7.47024 49.1307 5.67843 48.6154 5.45667C48.3818 5.35631 46.7312 5.26836 46.0769 5.25447C45.5267 5.24206 43.9949 5.12865 43.9949 5.12865C43.9949 5.12865 44.1323 1.51769 44.1643 1.13623C44.1914 0.818305 43.7801 0.65461 43.5442 0.5553C42.9707 0.312703 42.4575 0.19656 41.8492 0.0711594C41.0089 -0.102214 40.6276 0.0673721 40.5531 0.776645C40.441 1.85307 40.3829 5.00598 40.3829 5.00598C39.7662 5.00598 37.6596 4.88542 37.0427 4.88542C36.4696 4.88542 35.851 7.35031 36.6434 7.3806C37.5551 7.41595 39.1438 7.44667 40.1971 7.47823C40.1971 7.47823 40.1502 13.0081 40.1502 14.7155C40.1502 14.8971 40.151 15.0719 40.1521 15.2417C39.5724 18.2629 37.5307 19.895 37.5307 19.895C37.9691 17.8962 37.0735 16.3952 35.4601 15.1245C34.8657 14.6564 33.6923 13.77 32.3793 12.7985C32.3793 12.7985 33.1397 12.0493 33.8141 10.5413C34.2919 9.47308 34.3125 8.25105 33.1397 7.98152C31.2019 7.53588 29.6041 8.95906 29.1275 10.4784C28.7583 11.6556 28.9552 12.5288 29.6786 13.436C29.7314 13.5023 29.7886 13.5701 29.8477 13.6382C29.4103 14.4813 28.8094 15.6165 28.3004 16.4968C26.8878 18.9408 25.8206 20.874 25.0141 20.874C24.3695 20.874 24.3781 18.9112 24.3781 17.0735C24.3781 15.4894 24.4951 13.1076 24.5885 10.6417C24.6194 9.82613 24.2116 9.36156 23.528 8.94075C23.1127 8.68511 22.2263 8.18246 21.7129 8.18246C20.9445 8.18246 18.7275 8.28703 16.6327 14.3465C16.3686 15.1102 15.85 16.5018 15.85 16.5018L15.8948 9.21512C15.8948 9.04427 15.8037 8.8791 15.5954 8.76612C15.2423 8.57444 14.2995 8.18246 13.4612 8.18246C13.0619 8.18246 12.8624 8.36824 12.8624 8.73855L12.7894 20.1387C12.7894 21.0051 12.8119 22.0155 12.8976 22.4573C12.983 22.8998 13.1212 23.2598 13.2923 23.474C13.4634 23.6878 13.6611 23.8508 13.9871 23.9182C14.2905 23.9807 15.9522 24.194 16.0385 23.559C16.142 22.798 16.146 21.9749 17.0186 18.9051C18.3769 14.1257 20.1477 11.7938 20.9805 10.9657C21.1261 10.8209 21.2923 10.8123 21.2843 11.0492C21.2487 12.097 21.1238 14.7155 21.0396 16.9397C20.814 22.8925 21.897 23.9958 23.4445 23.9958C24.6285 23.9958 26.2974 22.8194 28.0865 19.8416C29.2018 17.9858 30.2848 16.1662 31.0628 14.8548C31.605 15.3568 32.2135 15.8969 32.8216 16.4741C34.2347 17.8152 34.6986 19.0896 34.3908 20.2986C34.1554 21.2229 33.2687 22.1754 31.6907 21.2496C31.2307 20.9795 31.0344 20.7707 30.572 20.4663C30.3235 20.3028 29.9441 20.2538 29.7167 20.4253C29.1259 20.8707 28.7879 21.4373 28.595 22.1388C28.4073 22.8213 29.0909 23.1822 29.7996 23.4978C30.4097 23.7694 31.7212 24.0156 32.5575 24.0436C35.8163 24.1526 38.4268 22.4702 40.244 18.1304C40.5693 21.8785 41.9538 23.9992 44.3591 23.9992C45.9672 23.9992 47.5796 21.9206 48.2846 19.8757C48.487 20.7093 48.7867 21.4341 49.1736 22.0473C51.027 24.9839 54.6226 24.3518 56.4288 21.8581C56.9872 21.0876 57.0722 20.8107 57.0722 20.8107C57.3356 23.1653 59.2318 23.988 60.3175 23.988C61.5334 23.988 62.7889 23.4132 63.6688 21.4322C63.7719 21.6473 63.8844 21.8526 64.0073 22.0473C65.8608 24.9839 69.4564 24.3518 71.2625 21.8581C71.3477 21.7411 71.4215 21.6351 71.4861 21.5398L71.5392 23.0864C71.5392 23.0864 70.5088 24.0316 69.8763 24.6115C67.0891 27.166 64.9718 29.1036 64.8161 31.36C64.6179 34.237 66.9498 35.3063 68.7168 35.4464C70.5898 35.5952 72.1967 34.5596 73.1828 33.1103C74.0508 31.8346 74.6188 29.0891 74.5772 26.3774C74.5606 25.2915 74.5332 23.9108 74.5118 22.4308C75.4901 21.2946 76.5924 19.8584 77.6074 18.1777C78.7135 16.3459 79.8989 13.8859 80.506 11.9714C80.506 11.9714 81.5359 11.9803 82.635 11.9083C82.9866 11.8854 83.0876 11.9571 83.0226 12.2149C82.9441 12.5263 81.6339 17.5797 82.8297 20.9462C83.6481 23.2508 85.4932 23.9922 86.5871 23.9922C87.8676 23.9922 89.0926 23.0252 89.749 21.5892C89.8281 21.7493 89.9108 21.9042 90.0011 22.0473C91.8545 24.9839 95.4375 24.348 97.2562 21.8581C97.6667 21.2963 97.8997 20.8107 97.8997 20.8107C98.29 23.2476 100.185 24.0004 101.271 24.0004C102.401 24.0004 103.474 23.5369 104.345 21.4769C104.381 22.3839 104.439 23.1256 104.529 23.3593C104.584 23.5024 104.905 23.6819 105.139 23.7686C106.174 24.1521 107.229 23.9708 107.619 23.8919C107.889 23.8372 108.1 23.6202 108.129 23.0601C108.205 21.5894 108.158 19.1184 108.604 17.2818C109.352 14.1998 110.051 13.0043 110.382 12.4124C110.567 12.0808 110.776 12.0261 110.784 12.3771C110.799 13.0872 110.835 15.1725 111.125 17.9743C111.338 20.0347 111.622 21.2528 111.841 21.6382C112.464 22.7405 113.235 22.7927 113.862 22.7927C114.262 22.7927 115.096 22.6825 115.022 21.981C114.985 21.6391 115.049 19.526 115.787 16.4896C116.269 14.5068 117.072 12.7154 117.362 12.0602C117.469 11.8187 117.518 12.0091 117.516 12.0461C117.455 13.4116 117.319 17.8781 117.875 20.3209C118.629 23.6301 120.81 24.0004 121.571 24.0004C123.193 24.0004 124.521 22.766 124.968 19.5178C125.075 18.7361 124.916 18.1325 124.438 18.1325Z" fill="#2D2D2D"/>
</svg>
