<svg width="125" height="31" viewBox="0 0 125 31" fill="none" xmlns="http://www.w3.org/2000/svg">
<path d="M123.243 28.3604C123.32 28.3611 123.396 28.3462 123.467 28.3165C123.538 28.2868 123.602 28.243 123.655 28.1878C123.708 28.1326 123.749 28.0671 123.775 27.9955C123.802 27.9239 123.813 27.8476 123.809 27.7714C123.809 27.3537 123.555 27.1542 123.034 27.1542H122.193V29.341H122.51V28.3877H122.898L122.907 28.3993L123.511 29.341H123.849L123.2 28.3664L123.243 28.3604ZM122.877 28.1413H122.511V27.402H122.975C123.216 27.402 123.489 27.441 123.489 27.7533C123.489 28.1125 123.212 28.1413 122.875 28.1413" fill="#2D2D2D"/>
<path d="M0 4.4494H4.66956V21.3423H13.3143V25.6222H0V4.4494Z" fill="#2D2D2D"/>
<path d="M15.3788 11.2664H19.8647V25.6143H15.3788V11.2664ZM17.6217 4.13336C18.1364 4.13345 18.6395 4.28511 19.0674 4.56916C19.4952 4.85321 19.8287 5.25688 20.0256 5.72915C20.2225 6.20142 20.2739 6.72107 20.1735 7.22239C20.073 7.7237 19.8252 8.18418 19.4612 8.54558C19.0972 8.90699 18.6335 9.15309 18.1288 9.25278C17.624 9.35247 17.1008 9.30126 16.6253 9.10563C16.1498 8.91 15.7434 8.57873 15.4575 8.15372C15.1716 7.72871 15.019 7.22903 15.019 6.71788C15.019 6.37844 15.0863 6.04232 15.2171 5.72872C15.3479 5.41513 15.5396 5.13019 15.7813 4.89019C16.023 4.65019 16.3099 4.45982 16.6257 4.32996C16.9415 4.20011 17.2799 4.1333 17.6217 4.13336" fill="#2D2D2D"/>
<path d="M38.6298 4.44617H43.1157V17.0996L48.1997 11.26H53.6997L47.8119 17.9025L53.5758 25.6203H47.9376L43.1755 18.5281H43.1166V25.6194H38.6307L38.6298 4.44617Z" fill="#2D2D2D"/>
<path d="M22.3521 11.2678H26.6599V13.2286H26.7211C27.1514 12.4964 27.7739 11.8941 28.522 11.4859C29.2701 11.0777 30.1158 10.879 30.9688 10.9109C35.5178 10.9109 36.3551 13.8834 36.3551 17.7451V25.6133H31.8692V18.6376C31.8692 16.9724 31.8384 14.832 29.5328 14.832C27.201 14.832 26.8412 16.6452 26.8412 18.5164V25.6115H22.3553L22.3521 11.2678Z" fill="#2D2D2D"/>
<path d="M63.1468 16.7715C63.1554 16.41 63.09 16.0506 62.9546 15.715C62.8192 15.3794 62.6166 15.0745 62.3591 14.819C62.1016 14.5634 61.7945 14.3624 61.4565 14.2281C61.1185 14.0939 60.7566 14.0292 60.3926 14.038C59.6088 13.9895 58.8373 14.249 58.2443 14.7603C57.6513 15.2716 57.2843 15.9939 57.2226 16.7715H63.1468ZM66.9468 23.1295C66.2013 24.0273 65.2642 24.7492 64.2032 25.2429C63.1422 25.7366 61.9839 25.9898 60.8123 25.9841C56.3263 25.9841 52.7348 23.0102 52.7348 18.4051C52.7348 13.7999 56.3259 10.8274 60.8123 10.8274C65.0052 10.8274 67.6346 13.7976 67.6346 18.4051V19.802H57.2226C57.3522 20.5942 57.7658 21.3132 58.387 21.8266C59.0083 22.3399 59.7954 22.6129 60.6034 22.5954C61.2419 22.5914 61.8693 22.4289 62.4284 22.1227C62.9875 21.8165 63.4607 21.3762 63.8047 20.842L66.9468 23.1295Z" fill="#2D2D2D"/>
<path d="M76.9849 14.7346C74.7419 14.7346 73.3962 16.2221 73.3962 18.3894C73.3962 20.5567 74.7415 22.0455 76.9849 22.0455C79.2283 22.0455 80.5769 20.5604 80.5769 18.3894C80.5769 16.2183 79.2307 14.7346 76.9849 14.7346ZM84.7068 25.6116H80.5769V23.7088H80.5157C79.9976 24.4009 79.3256 24.9648 78.552 25.3567C77.7785 25.7486 76.9243 25.9578 76.056 25.968C71.7457 25.968 68.9065 22.8785 68.9065 18.5096C68.9065 14.497 71.4191 10.8126 75.5494 10.8126C77.4059 10.8126 79.14 11.3171 80.1573 12.7154H80.2162V4.44482H84.7063L84.7068 25.6116Z" fill="#2D2D2D"/>
<path d="M114.991 25.6199H110.505V18.6427C110.505 16.979 110.475 14.8372 108.172 14.8372C105.836 14.8372 105.478 16.6499 105.478 18.5216V25.6194H100.992V11.2716H105.299V13.2324H105.359C105.79 12.5005 106.413 11.8984 107.161 11.4903C107.909 11.0822 108.755 10.8832 109.608 10.9147C114.155 10.9147 114.993 13.8849 114.993 17.7489L114.991 25.6199ZM95.9305 9.31032C95.4156 9.31041 94.9123 9.15887 94.4841 8.87485C94.056 8.59084 93.7223 8.1871 93.5252 7.71471C93.3281 7.24231 93.2764 6.72248 93.3767 6.22093C93.4771 5.71938 93.725 5.25866 94.089 4.89701C94.453 4.53536 94.9168 4.28904 95.4217 4.18919C95.9267 4.08934 96.4501 4.14045 96.9258 4.33605C97.4016 4.53165 97.8082 4.86296 98.0943 5.28808C98.3804 5.71321 98.5332 6.21305 98.5333 6.72441C98.5334 7.06393 98.4661 7.40015 98.3353 7.71385C98.2045 8.02756 98.0129 8.31261 97.7712 8.55273C97.5295 8.79286 97.2425 8.98335 96.9267 9.11334C96.6109 9.24332 96.2724 9.31026 95.9305 9.31032V9.31032ZM98.1735 25.6199H93.6829V11.2716H98.1735V25.6199ZM117.227 0.00204857H91.4287C90.8432 -0.0045143 90.2789 0.220076 89.86 0.626468C89.4411 1.03286 89.2018 1.5878 89.1946 2.16935V27.8981C89.2015 28.4799 89.4407 29.0353 89.8596 29.4421C90.2785 29.8489 90.8429 30.0739 91.4287 30.0677H117.227C117.814 30.075 118.38 29.8506 118.801 29.4438C119.221 29.037 119.462 28.4811 119.47 27.8981V2.1675C119.462 1.58479 119.221 1.02922 118.801 0.622837C118.38 0.216455 117.814 -0.00749371 117.227 0.00019146" fill="#2D2D2D"/>
<path d="M122.916 26.1801C122.37 26.1853 121.848 26.4049 121.465 26.791C121.082 27.177 120.868 27.6981 120.871 28.2402C120.874 28.7823 121.092 29.3012 121.479 29.6836C121.866 30.066 122.39 30.2807 122.936 30.2807C123.481 30.2807 124.005 30.066 124.392 29.6836C124.779 29.3012 124.997 28.7823 125 28.2402C125.003 27.6981 124.789 27.177 124.406 26.791C124.023 26.4049 123.501 26.1853 122.955 26.1801H122.916ZM122.916 30.0459C122.558 30.0518 122.206 29.9522 121.905 29.7596C121.604 29.567 121.367 29.2901 121.225 28.9639C121.082 28.6377 121.04 28.2768 121.104 27.9269C121.168 27.5771 121.335 27.2539 121.584 26.9983C121.833 26.7427 122.153 26.5662 122.503 26.491C122.853 26.4159 123.217 26.4454 123.55 26.576C123.883 26.7066 124.17 26.9324 124.374 27.2247C124.578 27.517 124.69 27.8628 124.696 28.2183C124.696 28.2286 124.696 28.2383 124.696 28.2485C124.706 28.7149 124.529 29.1662 124.204 29.5031C123.879 29.84 123.432 30.0349 122.963 30.045H122.916" fill="#2D2D2D"/>
</svg>
