<svg width="125" height="19" viewBox="0 0 125 19" fill="none" xmlns="http://www.w3.org/2000/svg">
<path d="M18.7414 9.54611C18.7414 14.7068 14.546 18.8905 9.37055 18.8905C4.1951 18.8905 0 14.708 0 9.54611C0 4.38419 4.19541 0.202026 9.37055 0.202026C14.5457 0.202026 18.7414 4.38545 18.7414 9.54611Z" fill="#2D2D2D"/>
<path d="M29.0213 9.54606C29.0213 14.4042 26.9235 18.3421 24.3359 18.3421C21.7483 18.3421 19.6505 14.4029 19.6505 9.54606C19.6505 4.68919 21.7483 0.75 24.3359 0.75C26.9235 0.75 29.0213 4.68919 29.0213 9.54606Z" fill="#2D2D2D"/>
<path d="M33.226 9.54607C33.226 13.8987 32.4881 17.427 31.5781 17.427C30.668 17.427 29.9301 13.8975 29.9301 9.54607C29.9301 5.19468 30.668 1.66516 31.5784 1.66516C32.4887 1.66516 33.226 5.19373 33.226 9.54607Z" fill="#2D2D2D"/>
<path d="M59.088 1.01221L59.1141 1.00654V0.806431H53.7849L48.8367 12.3246L43.8884 0.806431H38.1456V1.00654L38.1714 1.01221C39.1441 1.22966 39.638 1.55393 39.638 2.7234V16.4144C39.638 17.5839 39.1422 17.9082 38.1695 18.1256L38.1437 18.1313V18.332H42.04V18.1319L42.0142 18.1263C41.0415 17.9088 40.5477 17.5845 40.5477 16.4151V3.51754L46.9043 18.332H47.2648L53.8066 3.1044V16.7532C53.7232 17.6769 53.2338 17.9621 52.3531 18.159L52.327 18.165V18.3636H59.1141V18.165L59.088 18.159C58.2063 17.9621 57.7051 17.6769 57.6217 16.7532L57.6173 2.7234H57.6217C57.6217 1.55393 58.1156 1.22966 59.088 1.01221V1.01221ZM62.1882 10.0818C62.2992 7.62186 63.1911 5.84639 64.6879 5.81582C65.1496 5.82338 65.5369 5.97339 65.8379 6.26205C66.4774 6.87688 66.7781 8.16169 66.7317 10.0818H62.1882ZM62.121 10.7751H70.0759V10.742C70.0533 8.86097 69.5032 7.3978 68.4423 6.39315C67.5253 5.52495 66.1675 5.0472 64.7414 5.0472H64.7095C63.9694 5.0472 63.0616 5.22494 62.4157 5.54701C61.6803 5.8842 61.0318 6.38842 60.4922 7.0502C59.6235 8.11631 59.0972 9.5571 58.9693 11.1763C58.9652 11.2248 58.9617 11.2733 58.9582 11.3219C58.9547 11.3704 58.9524 11.4139 58.9502 11.4602C58.9458 11.5469 58.9423 11.6338 58.9403 11.7211C58.9372 11.8611 58.9362 12.0019 58.9388 12.1437C59.025 15.811 61.0252 18.7417 64.5778 18.7417C67.6961 18.7417 69.5121 16.4841 69.9649 13.4538L69.7361 13.374C68.9406 15.0026 67.5119 15.9896 65.8859 15.8693C63.6662 15.7048 61.9658 13.4758 62.1201 10.7757L62.121 10.7751ZM79.07 15.7448C78.8091 16.3577 78.2647 16.6949 77.5351 16.6949C76.8054 16.6949 76.1385 16.1989 75.6647 15.2976C75.1556 14.3301 74.8877 12.9625 74.8877 11.3423C74.8877 7.9704 75.9466 5.78935 77.5857 5.78935C78.272 5.78935 78.8123 6.12654 79.07 6.7149V15.7448ZM84.347 18.1486C83.3743 17.9208 82.8804 17.5814 82.8804 16.3524V0L76.9706 1.72442V1.93556L77.0069 1.93272C77.8221 1.86749 78.3751 1.97905 78.6962 2.27275C78.9475 2.5028 79.07 2.85575 79.07 3.35241V5.59428C78.4874 5.22589 77.7944 5.04657 76.9534 5.04657C75.2479 5.04657 73.689 5.75783 72.5649 7.04957C71.3929 8.39583 70.7734 10.2356 70.7734 12.3694C70.7731 16.1803 72.6673 18.7417 75.4865 18.7417C77.1357 18.7417 78.4626 17.8467 79.07 16.3372V18.3636H84.3728V18.1537L84.347 18.1486ZM89.4155 2.22391C89.4155 1.03396 88.5096 0.136454 87.3078 0.136454C86.1117 0.136454 85.1759 1.0535 85.1759 2.22391C85.1759 3.39432 86.1127 4.31136 87.3078 4.31136C88.5096 4.31136 89.4155 3.41386 89.4155 2.22391V2.22391ZM90.8105 18.1486C89.8378 17.9208 89.3439 17.5814 89.3439 16.3524H89.3398V5.08534L84.0368 6.59326V6.7981L84.0686 6.80093C85.216 6.90209 85.5301 7.29349 85.5301 8.62147V18.3636H90.8376V18.1537L90.8105 18.1486ZM104.399 18.1486C103.426 17.9208 102.932 17.5814 102.932 16.3524V5.08534L97.8834 6.54347V6.74893L97.9133 6.75209C98.8513 6.84978 99.1224 7.26355 99.1224 8.59752V15.7196C98.8096 16.3325 98.2229 16.6965 97.512 16.7211C96.3592 16.7211 95.7244 15.9499 95.7244 14.5498V5.08565L90.4214 6.59357V6.7981L90.4532 6.80093C91.6006 6.90178 91.915 7.29317 91.915 8.62147V14.6491C91.9122 15.0698 91.9492 15.49 92.0254 15.9039L92.1208 16.3152C92.5698 17.9085 93.7462 18.7417 95.5892 18.7417C97.1502 18.7417 98.5185 17.7847 99.1211 16.2871V18.367H104.424V18.1571L104.399 18.1486ZM125 18.3636V18.1534L124.974 18.1474C123.919 17.9063 123.508 17.4519 123.508 16.5266V8.86255C123.508 6.47288 122.152 5.04657 119.882 5.04657C118.228 5.04657 116.833 5.99356 116.295 7.4687C115.869 5.90563 114.641 5.04657 112.825 5.04657C111.23 5.04657 109.981 5.88011 109.444 7.28813V5.08628L104.141 6.53244V6.73854L104.173 6.74137C105.307 6.84095 105.635 7.2437 105.635 8.53764V18.3636H110.583V18.1537L110.556 18.1474C109.715 17.9514 109.443 17.594 109.443 16.677V7.89224C109.666 7.377 110.114 6.76658 111.002 6.76658C112.104 6.76658 112.663 7.52291 112.663 9.01287V18.3636H117.612V18.1537L117.586 18.1474C116.744 17.9514 116.472 17.594 116.472 16.677V8.8616C116.475 8.56938 116.451 8.27752 116.402 7.98931C116.638 7.42931 117.113 6.76658 118.037 6.76658C119.155 6.76658 119.698 7.50116 119.698 9.01287V18.3636H125Z" fill="#2D2D2D"/>
</svg>
